<?xml version="1.0" standalone="no"?>
<!DOCTYPE svg PUBLIC "-//W3C//DTD SVG 20010904//EN"
 "http://www.w3.org/TR/2001/REC-SVG-20010904/DTD/svg10.dtd">
<svg version="1.0" xmlns="http://www.w3.org/2000/svg"
 width="700.000000pt" height="700.000000pt" viewBox="0 0 700.000000 700.000000"
 preserveAspectRatio="xMidYMid meet">
<metadata>
Created by potrace 1.11, written by Peter Selinger 2001-2013
</metadata>
<g transform="translate(0.000000,700.000000) scale(0.100000,-0.100000)"
fill="#000000" stroke="none">
<path d="M697 6454 c-1 -1 -33 -4 -72 -7 -81 -6 -186 -37 -253 -74 -172 -95
-305 -262 -349 -438 -21 -83 -23 -250 -21 -1447 l3 -1323 27 -80 c138 -404
578 -597 955 -419 64 31 213 137 213 153 0 3 13 20 29 37 27 29 115 174 105
174 -2 0 2 12 10 28 7 15 20 60 27 100 7 39 16 72 19 72 4 0 7 -20 9 -44 1
-25 3 -53 5 -63 2 -10 9 -49 16 -88 76 -430 309 -861 619 -1151 l44 -41 -1
-434 c0 -239 -1 -441 -1 -450 -1 -12 -16 -15 -88 -14 -136 1 -123 24 -123
-209 l0 -201 1630 -3 1630 -3 0 209 0 209 -105 -1 -105 -2 0 449 0 449 63 62
c97 97 147 154 218 251 232 316 359 645 405 1050 7 62 14 71 14 19 0 -84 54
-233 119 -327 220 -320 671 -392 986 -157 117 88 204 216 253 373 15 47 17
191 19 1387 3 1498 7 1400 -72 1565 -52 108 -135 203 -234 270 -69 45 -172 90
-233 100 -18 3 -42 9 -53 12 -16 5 -5702 12 -5708 7z"/>
</g>
</svg>
